<?xml version="1.0" encoding="UTF-8" standalone="no"?>
<!-- Created with Inkscape (http://www.inkscape.org/) -->

<svg
   xmlns:dc="http://purl.org/dc/elements/1.1/"
   xmlns:cc="http://creativecommons.org/ns#"
   xmlns:rdf="http://www.w3.org/1999/02/22-rdf-syntax-ns#"
   xmlns:svg="http://www.w3.org/2000/svg"
   xmlns="http://www.w3.org/2000/svg"
   xmlns:sodipodi="http://sodipodi.sourceforge.net/DTD/sodipodi-0.dtd"
   xmlns:inkscape="http://www.inkscape.org/namespaces/inkscape"
   width="210mm"
   height="297mm"
   id="svg2"
   version="1.1"
   inkscape:version="0.91 r13725"
   sodipodi:docname="LogoEscueladeHosteleriayServicios.svg"
   inkscape:export-filename="/home/creawww/DATOS/020_NOVATERRA/Novaterra/VARIOS/LogoEscueladeHosteleriayServicios.png"
   inkscape:export-xdpi="90"
   inkscape:export-ydpi="90">
  <sodipodi:namedview
     id="base"
     pagecolor="#ffffff"
     bordercolor="#666666"
     borderopacity="1.0"
     inkscape:pageopacity="0.0"
     inkscape:pageshadow="2"
     inkscape:zoom="0.98994949"
     inkscape:cx="454.08763"
     inkscape:cy="696.01703"
     inkscape:document-units="px"
     inkscape:current-layer="layer1"
     showgrid="false"
     inkscape:window-width="1920"
     inkscape:window-height="1014"
     inkscape:window-x="0"
     inkscape:window-y="27"
     inkscape:window-maximized="1"
     showguides="false">
    <sodipodi:guide
       position="-779.83778,1381.8887"
       orientation="1,0"
       id="guide4319" />
  </sodipodi:namedview>
  <defs
     id="defs4">
    <clipPath
       clipPathUnits="userSpaceOnUse"
       id="clipPath148">
      <path
         d="m 242.736,477.59 c -17.978,0 -32.551,-14.575 -32.551,-32.554 l 0,0 0,-48.185 c 0,-17.976 14.573,-32.553 32.551,-32.553 l 0,0 109.799,0 c 17.981,0 32.555,14.577 32.555,32.553 l 0,0 0,48.185 c 0,17.979 -14.574,32.554 -32.555,32.554 l 0,0 -109.799,0 z"
         id="path150"
         inkscape:connector-curvature="0" />
    </clipPath>
    <clipPath
       clipPathUnits="userSpaceOnUse"
       id="clipPath16">
      <path
         d="m 0,841.89 595.275,0 L 595.275,0 0,0 0,841.89 z"
         id="path18"
         inkscape:connector-curvature="0" />
    </clipPath>
    <clipPath
       clipPathUnits="userSpaceOnUse"
       id="clipPath148-2">
      <path
         d="m 242.736,477.59 c -17.978,0 -32.551,-14.575 -32.551,-32.554 l 0,0 0,-48.185 c 0,-17.976 14.573,-32.553 32.551,-32.553 l 0,0 109.799,0 c 17.981,0 32.555,14.577 32.555,32.553 l 0,0 0,48.185 c 0,17.979 -14.574,32.554 -32.555,32.554 l 0,0 -109.799,0 z"
         id="path150-3"
         inkscape:connector-curvature="0" />
    </clipPath>
    <clipPath
       clipPathUnits="userSpaceOnUse"
       id="clipPath16-2">
      <path
         d="m 0,841.89 595.275,0 L 595.275,0 0,0 0,841.89 z"
         id="path18-5"
         inkscape:connector-curvature="0" />
    </clipPath>
  </defs>
  <metadata
     id="metadata7">
    <rdf:RDF>
      <cc:Work
         rdf:about="">
        <dc:format>image/svg+xml</dc:format>
        <dc:type
           rdf:resource="http://purl.org/dc/dcmitype/StillImage" />
        <dc:title />
      </cc:Work>
    </rdf:RDF>
  </metadata>
  <g
     id="layer1"
     inkscape:groupmode="layer"
     inkscape:label="Capa 1">
    <rect
       y="-380.08258"
       x="143.63962"
       height="49.826237"
       width="456.15826"
       id="rect4856"
       style="color:#000000;clip-rule:nonzero;display:inline;overflow:visible;visibility:visible;opacity:1;isolation:auto;mix-blend-mode:normal;color-interpolation:sRGB;color-interpolation-filters:linearRGB;solid-color:#000000;solid-opacity:1;fill:#786daa;fill-opacity:1;fill-rule:nonzero;stroke:none;stroke-width:1.13499999;stroke-linecap:butt;stroke-linejoin:miter;stroke-miterlimit:4;stroke-dasharray:none;stroke-dashoffset:0;stroke-opacity:1;marker:none;color-rendering:auto;image-rendering:auto;shape-rendering:auto;text-rendering:auto;enable-background:accumulate"
       transform="scale(1,-1)"
       inkscape:export-xdpi="90"
       inkscape:export-ydpi="90" />
    <rect
       style="color:#000000;clip-rule:nonzero;display:inline;overflow:visible;visibility:visible;opacity:1;isolation:auto;mix-blend-mode:normal;color-interpolation:sRGB;color-interpolation-filters:linearRGB;solid-color:#000000;solid-opacity:1;fill:#8dc8ab;fill-opacity:1;fill-rule:nonzero;stroke:none;stroke-width:1.13499999;stroke-linecap:butt;stroke-linejoin:miter;stroke-miterlimit:4;stroke-dasharray:none;stroke-dashoffset:0;stroke-opacity:1;marker:none;color-rendering:auto;image-rendering:auto;shape-rendering:auto;text-rendering:auto;enable-background:accumulate"
       id="rect4854"
       width="456.15826"
       height="151.20389"
       x="143.63962"
       y="179.05244"
       inkscape:export-xdpi="90"
       inkscape:export-ydpi="90" />
    <text
       sodipodi:linespacing="100%"
       id="text2985"
       y="138.07648"
       x="71.428574"
       style="font-size:12px;font-style:normal;font-variant:normal;font-weight:bold;font-stretch:normal;line-height:100%;letter-spacing:0px;word-spacing:-0.01px;fill:#000000;fill-opacity:1;stroke:none;font-family:Nunito;-inkscape-font-specification:Sans"
       xml:space="preserve"><tspan
         id="tspan2987"
         sodipodi:role="line" /></text>
    <path
       style="fill:#ffffff"
       d="m 207.48166,284.2244 c -0.91149,-0.52338 -2.61485,-4.94583 -2.36662,-6.14457 0.0962,-0.46508 -0.2424,-2.25248 -0.87611,-4.6233 -0.5682,-2.12587 -1.27971,-4.8696 -1.5811,-6.09718 -0.75971,-3.09441 -0.80191,-3.10772 -5.53742,-1.748 -2.03546,0.58442 -4.47171,1.18335 -5.41389,1.33085 -2.06826,0.3238 -5.38662,0.31854 -6.13634,-0.0105 -0.29931,-0.13098 -1.25125,-0.21879 -2.11542,-0.19489 -0.86417,0.0241 -2.05336,-0.11002 -2.64264,-0.29738 -0.58927,-0.18747 -1.61474,-0.40131 -2.27882,-0.47527 -0.66407,-0.0741 -1.74179,-0.33205 -2.39493,-0.57352 -2.59743,-0.96019 -8.71968,-4.0823 -9.97867,-5.08876 -1.9134,-1.52951 -4.92067,-4.51606 -5.09792,-5.06264 -0.0831,-0.25611 -0.32762,-0.55576 -0.54355,-0.66592 -0.53855,-0.27487 -3.51844,-9.45263 -3.35831,-10.34337 0.0653,-0.36266 0.0352,-0.91652 -0.0668,-1.23087 -0.48099,-1.48346 1.22352,-7.67013 2.99754,-10.87987 0.72218,-1.30668 1.58851,-2.73487 1.92517,-3.17369 0.78792,-1.02719 3.45103,-3.66876 3.82385,-3.79305 0.51918,-0.17303 4.14476,-3.77078 4.76758,-4.73098 1.65164,-2.54638 2.34695,-3.5072 3.51006,-4.85044 0.69528,-0.80295 1.71242,-2.01736 2.26034,-2.69869 1.18144,-1.46904 2.33011,-2.56145 3.3614,-3.19676 0.41261,-0.25415 0.96835,-0.78228 1.23498,-1.17359 0.26665,-0.3913 0.70543,-0.78297 0.9751,-0.87038 0.26967,-0.0874 0.5262,-0.30561 0.57006,-0.48485 0.0439,-0.17923 0.37073,-0.4202 0.72637,-0.53554 0.35565,-0.11526 0.67856,-0.34009 0.71758,-0.4995 0.0389,-0.15945 0.4471,-0.48675 0.90687,-0.7274 0.45975,-0.24064 1.39913,-0.78235 2.08749,-1.20381 0.68837,-0.42148 3.36411,-1.50525 5.9461,-2.40841 4.18123,-1.46253 4.86415,-1.6327 6.24563,-1.55594 3.0868,0.17143 3.51694,-0.0215 4.80381,-2.15868 0.35055,-0.58208 0.94411,-1.24964 1.31904,-1.48344 0.37492,-0.23381 1.4199,-1.06294 2.32214,-1.8425 1.7584,-1.51924 2.82089,-2.22491 5.0604,-3.36085 0.77934,-0.3953 1.98013,-1.06381 2.66839,-1.48548 0.68829,-0.42173 3.21236,-1.45689 5.60905,-2.30033 3.84782,-1.35416 4.57667,-1.53276 6.22967,-1.52675 1.02962,0.006 2.27614,-0.12409 2.77005,-0.28431 0.49392,-0.16015 1.49549,-0.22924 2.22572,-0.15351 0.7302,0.0756 2.086,0.20986 3.01284,0.29815 0.92686,0.0883 2.31489,0.41367 3.0845,0.72301 0.76962,0.30943 1.99724,0.61802 2.72807,0.68577 1.41435,0.13114 3.60606,0.78787 4.16014,1.24647 0.18394,0.15231 1.094,0.43111 2.02229,0.61953 1.65874,0.33666 7.15775,3.00327 7.33766,3.55815 0.0506,0.15579 0.31577,0.39753 0.58941,0.53714 1.6032,0.8181 3.78543,3.73315 4.55199,6.08057 0.65912,2.01805 0.74181,3.01297 0.57983,6.96965 -0.0425,1.03884 0.0401,1.24685 0.84434,2.12623 2.6241,2.86928 3.00836,3.50422 4.40525,7.27907 1.57055,4.24416 1.57661,4.35184 0.54416,9.68055 -0.25313,1.30643 -4.31555,9.424 -5.583,11.15595 -0.44636,0.60996 -1.6071,1.98661 -2.57935,3.05916 -0.97226,1.07257 -2.18454,2.45868 -2.69399,3.08029 -0.50944,0.62161 -1.55526,1.55981 -2.32407,2.08484 -0.76878,0.5251 -1.89619,1.36113 -2.50533,1.85789 -0.95006,0.77469 -1.26361,0.90037 -2.20499,0.88383 -0.60358,-0.0105 -1.14601,-0.12634 -1.20536,-0.25732 -0.16041,-0.35379 1.32731,-1.75243 2.14749,-2.01888 0.39223,-0.12739 0.8058,-0.46426 0.91907,-0.74843 0.11332,-0.28426 0.46469,-0.60451 0.78102,-0.71169 0.31626,-0.10718 1.17343,-0.84763 1.90478,-1.64544 0.73134,-0.79775 1.98312,-2.1417 2.78171,-2.98655 0.79861,-0.84483 1.82187,-2.06082 2.27393,-2.70222 0.45205,-0.64139 1.15422,-1.59852 1.56038,-2.12698 0.40616,-0.52852 0.93624,-1.3918 1.17798,-1.91854 0.24173,-0.5267 0.82919,-1.34878 1.30541,-1.82684 0.53326,-0.53537 0.8974,-1.24718 0.94794,-1.85319 0.0451,-0.54114 0.30214,-1.38257 0.57108,-1.86982 0.26894,-0.48719 0.45209,-0.99961 0.40701,-1.13866 -0.0451,-0.13907 0.0933,-0.68405 0.30743,-1.21111 0.47264,-1.16318 0.52169,-5.9839 0.0832,-8.18651 -0.72163,-3.62522 -4.3237,-7.75062 -8.7264,-9.99415 -3.76406,-1.9181 -5.72247,-2.62561 -6.88746,-2.48827 -0.54099,0.0638 -1.72739,0.04 -2.63646,-0.0531 -2.73836,-0.28045 -1.96804,-1.10392 1.52083,-1.62574 1.33573,-0.19976 4.66539,0.17505 5.14107,0.57871 0.14954,0.12694 0.85521,0.3794 1.56816,0.5611 0.71293,0.18171 1.43768,0.51502 1.61055,0.74065 0.37152,0.48497 1.36232,1.12054 1.6178,1.0377 0.0988,-0.0316 0.29228,-0.6194 0.43026,-1.30541 0.31904,-1.58606 -0.41292,-3.97081 -1.72753,-5.62836 -1.73245,-2.18435 -3.29129,-3.72162 -4.21488,-4.15652 -0.50306,-0.2369 -0.9582,-0.56503 -1.01143,-0.72911 -0.19098,-0.58904 -5.68644,-3.08281 -7.56284,-3.4319 -1.05356,-0.19596 -2.38987,-0.57003 -2.96957,-0.83121 -0.57969,-0.26119 -1.59285,-0.47135 -2.25147,-0.4671 -0.65863,0.006 -2.60886,-0.18944 -4.33386,-0.43041 -2.0275,-0.28324 -3.49246,-0.32273 -4.14355,-0.11168 -0.55396,0.17962 -1.12234,0.22887 -1.26301,0.10943 -0.14071,-0.11931 -1.03687,0.0361 -1.99151,0.34573 -0.95468,0.30953 -2.09407,0.5218 -2.53201,0.47167 -0.59893,-0.0687 -0.92212,0.0349 -1.30419,0.41614 -0.27936,0.27906 -1.83394,0.9979 -3.45457,1.59746 -4.29102,1.58745 -6.55028,2.68214 -7.19744,3.48729 -0.31386,0.39055 -0.94308,0.83084 -1.39831,0.97845 -0.4552,0.1476 -1.05502,0.49817 -1.33296,0.77899 -0.27797,0.2809 -0.69874,0.70002 -0.93508,0.93142 -3.71173,3.63401 -5.92202,7.42483 -5.76986,9.89592 0.0248,0.40441 -0.0734,1.22117 -0.21817,1.81498 -0.21022,0.86145 -0.41858,1.1109 -1.03104,1.2343 -0.70413,0.14191 -0.80995,0.0475 -1.2798,-1.13874 -0.49957,-1.26149 -0.50691,-3.07228 -0.015,-3.6522 0.1235,-0.14566 0.25371,-0.56484 0.28924,-0.93154 0.0355,-0.36678 0.14595,-0.93738 0.24536,-1.26802 0.31766,-1.05628 -0.79085,-1.1504 -3.45165,-0.29287 -1.2786,0.41215 -2.54066,0.69393 -2.80452,0.62643 -0.26819,-0.0686 -0.57023,0.0198 -0.68495,0.20066 -0.11287,0.17784 -1.10179,0.681 -2.19758,1.11813 -1.78682,0.71275 -2.78876,1.22016 -5.28267,2.67528 -0.41625,0.24286 -1.19913,0.84256 -1.73969,1.33261 -0.54057,0.49004 -1.1303,0.93883 -1.3105,0.99726 -0.58015,0.18811 -4.36041,4.14934 -6.56434,6.87857 -4.03582,4.99775 -6.28823,9.34553 -6.75569,13.04053 -0.41598,3.28796 -0.35409,4.32795 0.39619,6.65618 0.57906,1.79691 0.85204,2.29931 1.47708,2.71845 0.4217,0.28278 0.88127,0.86753 1.02129,1.29932 0.13996,0.43186 0.43782,0.87868 0.66179,0.99295 0.79652,0.40645 0.4272,1.18469 -0.68614,1.44593 -0.88538,0.20776 -1.1849,0.11182 -2.00596,-0.64285 -0.53084,-0.48788 -1.05788,-1.16617 -1.17118,-1.50728 -0.11332,-0.3411 -0.60561,-1.01982 -1.09402,-1.50836 -0.68137,-0.68151 -1.06169,-1.42392 -1.63446,-3.19042 -0.41056,-1.26625 -0.6488,-2.4174 -0.52942,-2.5581 0.11945,-0.14071 0.13173,-0.52389 0.0275,-0.85161 -0.10418,-0.32774 -0.0581,-1.22602 0.10269,-1.99626 0.1608,-0.77023 0.27659,-1.44903 0.25732,-1.50848 -0.20554,-0.63391 -2.59895,2.5228 -4.2159,5.56042 -1.06115,1.99346 -1.51279,3.27265 -1.766,5.002 -0.18711,1.27796 -0.27358,2.52906 -0.19214,2.78023 0.0814,0.25111 0.0503,0.57174 -0.069,0.71245 -0.11946,0.14056 -0.0491,0.77385 0.15622,1.40706 0.2053,0.63316 0.28316,1.32785 0.173,1.54373 -0.2517,0.49322 0.98981,4.26958 1.48708,4.52335 0.20236,0.10329 0.51901,0.65363 0.70363,1.22302 0.1846,0.5694 0.51645,1.21105 0.73741,1.4259 0.22095,0.21491 0.81688,1.00233 1.32426,1.74983 0.50738,0.74749 1.6211,1.87145 2.4749,2.49757 0.85382,0.62618 2.21011,1.64106 3.01399,2.25534 0.81844,0.62542 2.28633,1.35668 3.33584,1.66191 1.03083,0.29979 2.11446,0.69718 2.40806,0.88314 0.63683,0.40327 4.85656,1.57737 5.23185,1.45567 0.43091,-0.13981 4.05006,0.50741 4.52704,0.80948 0.2428,0.15375 0.84686,0.14819 1.34234,-0.012 0.49549,-0.16062 1.01598,-0.19439 1.15668,-0.075 0.14071,0.11945 0.66892,0.0832 1.17387,-0.0805 0.50495,-0.1637 1.0332,-0.20002 1.17389,-0.0805 0.15422,0.13083 2.07987,-0.37438 4.84953,-1.27233 4.54257,-1.47287 4.59303,-1.49676 4.53179,-2.14442 -0.0954,-1.00805 -1.27821,-5.40343 -2.91243,-10.82252 l -1.48117,-4.91148 -1.40054,-0.60426 c -0.77029,-0.33237 -2.14914,-1.0827 -3.0641,-1.66743 -1.38331,-0.88401 -1.72613,-1.25604 -2.03478,-2.208 -0.47395,-1.4617 -0.17569,-2.51075 0.65754,-2.31275 0.32334,0.0768 0.73957,0.4818 0.92498,0.9001 0.67421,1.52089 2.10052,2.68398 3.46463,2.82511 1.45616,0.15059 5.39705,-1.27878 6.90336,-2.50403 0.71628,-0.58258 1.86631,-1.49606 2.55563,-2.02984 0.68931,-0.53383 1.71041,-1.54834 2.26908,-2.25445 0.55868,-0.70616 1.25547,-1.58562 1.5484,-1.95441 0.29294,-0.36874 0.88907,-1.02838 1.32474,-1.4659 0.88398,-0.88762 1.11519,-1.22625 4.09929,-6.00419 1.96603,-3.14791 3.11329,-5.98587 2.80463,-6.93783 -0.21376,-0.65927 0.70447,-2.03959 1.44259,-2.16851 1.6403,-0.28648 1.55125,2.22574 -0.29403,8.29661 -0.26304,0.86537 -0.41453,1.64727 -0.33663,1.7376 0.078,0.0903 1.00892,0.54906 2.06891,1.01939 1.78324,0.79122 2.77548,0.98503 5.36489,1.04803 2.12239,0.0519 2.68344,0.0463 3.81308,-0.0374 0.64462,-0.0475 1.70777,-0.10299 2.36253,-0.1235 1.6704,-0.0519 8.06222,-2.5979 8.48671,-3.38012 0.0981,-0.18081 0.37954,-0.39396 0.62534,-0.47369 0.78517,-0.25452 1.74467,-1.39775 2.57775,-3.07141 1.16571,-2.34172 2.70988,-2.6988 2.42655,-0.56108 -0.37203,2.8071 -2.94189,5.64755 -6.65945,7.36068 -0.57422,0.26461 -1.26271,0.69351 -1.52995,0.95303 -0.28186,0.27367 -1.12199,0.59716 -2.00033,0.77019 -0.83294,0.16402 -2.39091,0.50955 -3.4622,0.76777 -1.07128,0.25827 -2.10037,0.39453 -2.28684,0.30289 -0.18649,-0.0918 -0.73496,-0.0386 -1.21887,0.11856 -0.4839,0.15693 -0.99494,0.18761 -1.13562,0.0683 -0.14071,-0.11931 -0.49696,-0.13892 -0.79171,-0.0431 -0.67917,0.22026 -3.44341,-0.20654 -5.01298,-0.77391 -0.66063,-0.23874 -1.84374,-0.54232 -2.62912,-0.67454 -0.78538,-0.13218 -1.7804,-0.39048 -2.21114,-0.57397 -0.77939,-0.33197 -0.78526,-0.32974 -1.22007,0.4604 -0.2403,0.43668 -0.51454,0.81916 -0.6094,0.84991 -0.0949,0.0311 -0.59671,0.59848 -1.11517,1.26162 -0.51846,0.66307 -1.0247,1.2322 -1.125,1.26473 -0.10029,0.0323 -0.47856,0.47096 -0.84064,0.97426 -0.36206,0.50328 -1.36277,1.44871 -2.22384,2.10087 -0.86104,0.65225 -1.90159,1.68638 -2.31233,2.29813 -0.41073,0.6118 -0.93347,1.17289 -1.16165,1.24685 -0.22816,0.074 -0.77061,0.51983 -1.20546,0.99086 -0.43482,0.47097 -1.024,0.93199 -1.30925,1.02452 -0.28526,0.0925 -0.55456,0.3148 -0.59842,0.49404 -0.0439,0.17917 -0.74827,0.54258 -1.56532,0.8075 -1.00456,0.32571 -1.4927,0.61656 -1.50761,0.89822 -0.012,0.22911 1.31632,4.69219 2.9521,9.91803 1.63577,5.22577 3.10201,10.18497 3.25833,11.02044 0.18892,1.00975 0.46315,1.69108 0.81806,2.03238 0.32855,0.31594 0.59498,0.9368 0.69272,1.61431 0.35687,2.47381 1.44139,6.79055 2.05458,8.1779 0.41548,0.94011 0.56802,1.58074 0.41833,1.75712 -0.3372,0.39739 0.0361,1.35409 0.47318,1.21238 0.20187,-0.0654 0.68484,-0.55361 1.07325,-1.08491 0.38841,-0.53125 1.07062,-1.29928 1.51601,-1.70674 0.44538,-0.40753 1.06207,-1.21199 1.37039,-1.78772 1.80335,-3.36764 10.37401,-12.54225 11.46675,-12.27479 0.11152,0.0272 0.64455,-0.23051 1.18445,-0.57288 3.4059,-2.15982 4.70521,-2.66857 8.77027,-3.43374 3.85811,-0.72619 4.67865,-0.83147 4.91515,-0.6308 0.12589,0.10673 0.45348,0.12125 0.72812,0.0323 0.27464,-0.0891 1.31485,-0.0216 2.31158,0.15053 2.50855,0.43243 2.74998,0.31118 2.10501,-1.05755 -0.89787,-1.90536 -1.87706,-3.63566 -2.424,-4.28328 -0.28958,-0.34293 -0.48382,-0.70712 -0.43161,-0.8094 0.0521,-0.10209 -0.15324,-0.42077 -0.45647,-0.70782 -0.30324,-0.2871 -0.85279,-1.09924 -1.22124,-1.80477 -1.47946,-2.83304 -2.06542,-3.88993 -2.74919,-4.9587 -0.39345,-0.61496 -0.88682,-1.70458 -1.09644,-2.42138 -0.20962,-0.71682 -0.62138,-1.52833 -0.91502,-1.80339 -0.29362,-0.275 -0.87192,-1.20045 -1.28511,-2.05653 -0.4132,-0.85605 -0.96352,-1.97639 -1.2229,-2.4897 -0.71232,-1.4093 -0.13593,-4.00238 0.87769,-3.94876 0.25412,0.0135 0.85314,0.41563 1.3311,0.89377 0.7199,0.72005 1.05647,1.44155 1.96049,4.2024 1.04357,3.18714 2.07301,5.24168 3.39947,6.7849 0.33275,0.38712 0.88002,1.22219 1.21617,1.85566 0.33615,0.63355 0.93018,1.65596 1.32003,2.27207 0.38984,0.61612 0.94905,1.64982 1.24267,2.29711 0.29362,0.64736 0.68182,1.25724 0.86265,1.35536 0.18083,0.0981 0.45712,0.57434 0.61401,1.05822 0.15692,0.48392 0.43192,0.9157 0.61115,0.95956 0.17923,0.0437 0.4994,0.61509 0.71156,1.26929 0.21213,0.65433 0.51686,1.22171 0.67714,1.26093 0.1603,0.0394 0.50424,0.50945 0.76439,1.04487 0.77027,1.58574 1.63213,2.95035 2.21747,3.51094 0.74404,0.71262 0.79709,1.88861 0.0954,2.11614 -0.69016,0.22381 -2.77025,-0.0968 -3.45942,-0.53332 -0.69893,-0.44264 -6.59278,-1.33875 -7.96362,-1.21087 -0.6006,0.0558 -1.65423,0.13742 -2.34138,0.18095 -1.72796,0.10928 -7.4302,1.50362 -8.68647,2.12396 -0.56894,0.28096 -1.36295,0.87457 -1.7645,1.31911 -0.40157,0.44454 -0.88026,0.85694 -1.0638,0.91645 -0.42466,0.13771 -5.12313,4.75943 -5.56566,5.4748 -0.18269,0.29534 -0.69808,0.87204 -1.14529,1.28152 -0.44722,0.40954 -1.00584,1.15331 -1.24143,1.65286 -0.23557,0.49956 -0.57132,0.95461 -0.74611,1.01127 -0.1748,0.057 -0.45969,0.41906 -0.63313,0.80536 -0.1734,0.38616 -0.48234,0.75637 -0.68649,0.82253 -0.20415,0.0663 -0.73589,0.75584 -1.18161,1.53263 -1.54221,2.68745 -4.14708,5.54071 -5.4953,6.01921 -0.236,0.0837 -0.74512,-0.0292 -1.13136,-0.25092 z"
       id="path4838"
       inkscape:connector-curvature="0"
       inkscape:export-xdpi="90"
       inkscape:export-ydpi="90" />
    <text
       xml:space="preserve"
       style="color:#000000;font-style:normal;font-variant:normal;font-weight:bold;font-stretch:normal;font-size:57.58589935px;line-height:100%;font-family:'Noto Sans Lisu';-inkscape-font-specification:'Noto Sans Lisu Bold';text-indent:0;text-align:start;text-decoration:none;text-decoration-line:none;letter-spacing:0.61701047px;word-spacing:0px;text-transform:none;direction:ltr;block-progression:tb;writing-mode:lr-tb;baseline-shift:baseline;text-anchor:start;display:inline;overflow:visible;visibility:visible;fill:#ffffff;fill-opacity:1;fill-rule:nonzero;stroke:#ffffff;stroke-width:1.77677989;stroke-linecap:butt;stroke-linejoin:round;stroke-miterlimit:4;stroke-dasharray:none;stroke-dashoffset:0;stroke-opacity:1;marker:none;enable-background:accumulate"
       x="231.86908"
       y="351.0527"
       id="text4840"
       sodipodi:linespacing="100%"
       transform="scale(0.93034982,1.0748645)"
       inkscape:export-xdpi="90"
       inkscape:export-ydpi="90"><tspan
         sodipodi:role="line"
         id="tspan4842"
         x="231.86908"
         y="351.0527"
         style="fill:#ffffff;fill-opacity:1;stroke:#ffffff;stroke-width:1.77677989;stroke-opacity:1">NOVATERRA</tspan></text>
    <text
       transform="scale(0.74412658,1.3438574)"
       sodipodi:linespacing="100%"
       id="text4844"
       y="201.77036"
       x="357.86389"
       style="font-style:normal;font-variant:normal;font-weight:normal;font-stretch:normal;font-size:83.47446442px;line-height:100%;font-family:Niconne;-inkscape-font-specification:'Niconne, Normal';text-align:start;letter-spacing:0px;word-spacing:-0.06955945px;writing-mode:lr-tb;text-anchor:start;fill:#ffffff;fill-opacity:1;stroke:none"
       xml:space="preserve"
       inkscape:export-xdpi="90"
       inkscape:export-ydpi="90"><tspan
         y="201.77036"
         x="357.86389"
         sodipodi:role="line"
         id="tspan4846">Escuela de </tspan></text>
    <text
       transform="scale(0.77799834,1.2853498)"
       sodipodi:linespacing="100%"
       id="text4848"
       y="255.87459"
       x="275.38757"
       style="font-style:normal;font-variant:normal;font-weight:normal;font-stretch:normal;font-size:61.68083954px;line-height:100%;font-family:Niconne;-inkscape-font-specification:'Niconne, Normal';text-align:start;letter-spacing:0px;word-spacing:-0.05139877px;writing-mode:lr-tb;text-anchor:start;fill:#ffffff;fill-opacity:1;stroke:none"
       xml:space="preserve"
       inkscape:export-xdpi="90"
       inkscape:export-ydpi="90"><tspan
         y="255.87459"
         x="275.38757"
         sodipodi:role="line"
         id="tspan4850">Hostelería y Servicios</tspan></text>
    <path
       style="color:#000000;font-style:normal;font-variant:normal;font-weight:bold;font-stretch:normal;font-size:90.85977173px;line-height:100%;font-family:'Noto Sans Lisu';-inkscape-font-specification:'Noto Sans Lisu Bold';text-indent:0;text-align:start;text-decoration:none;text-decoration-line:none;letter-spacing:0.97352701px;word-spacing:0px;text-transform:none;direction:ltr;block-progression:tb;writing-mode:lr-tb;baseline-shift:baseline;text-anchor:start;display:inline;overflow:visible;visibility:visible;fill:#786daa;fill-opacity:1;fill-rule:nonzero;stroke:none;stroke-width:2.80342603;stroke-linecap:butt;stroke-linejoin:round;stroke-miterlimit:4;stroke-dasharray:none;stroke-dashoffset:0;stroke-opacity:1;marker:none;enable-background:accumulate"
       d="m 406.03073,331.25338 c -0.10778,0.27398 -0.52331,1.43597 -0.58409,1.55069 -2.74933,0.20641 -5.18643,1.03173 -7.31089,2.47697 -1.04657,0.69677 -1.88184,1.60117 -2.50663,2.71088 -0.5081,0.92343 -0.79882,1.92727 -0.89377,3.00434 -0.16231,2.02433 0.21259,2.7106 0.4531,3.31872 0.11212,0.23385 0.24343,0.44904 0.39358,0.64494 0.57802,0.80003 1.45278,1.19944 2.62433,1.19944 1.18716,0 2.57039,-0.96722 4.14808,-2.90275 1.59334,-1.9098 3.14657,-4.47854 4.66184,-7.70451 1.65576,0.12904 3.56201,0.55485 5.71766,1.27745 l 0.18697,-2.16748 c -1.40593,-0.74844 -3.00658,-1.27726 -4.80299,-1.58693 0.1223,-0.29086 0.56218,-1.50208 0.68069,-1.7935 z m -1.61528,4.29872 c -0.42171,1.05809 -1.44407,2.43982 -3.06867,4.14312 -1.62452,1.7291 -2.79698,2.59334 -3.5155,2.59334 -0.71859,0 -1.07694,-0.47731 -1.07694,-1.43223 0,-1.60008 1.26467,-2.99435 3.79525,-4.18149 1.31221,-0.6194 2.60059,-0.99369 3.86586,-1.12274 z"
       id="path4852"
       inkscape:connector-curvature="0"
       sodipodi:nodetypes="cccccccscccccccccsscc"
       inkscape:export-xdpi="90"
       inkscape:export-ydpi="90" />
  </g>
</svg>
